<?xml version="1.0" encoding="UTF-8" standalone="no"?>
<!DOCTYPE svg PUBLIC "-//W3C//DTD SVG 1.1//EN" "http://www.w3.org/Graphics/SVG/1.1/DTD/svg11.dtd">
<svg version="1.1" xmlns="http://www.w3.org/2000/svg" xmlns:xlink="http://www.w3.org/1999/xlink" preserveAspectRatio="xMidYMid meet" viewBox="0 0 640 640" width="104" height="104"><defs><path d="M567.13 298.91C567.13 427.6 459.32 532.08 326.54 532.08C193.75 532.08 85.94 427.6 85.94 298.91C85.94 170.22 193.75 65.74 326.54 65.74C459.32 65.74 567.13 170.22 567.13 298.91Z" id="c6vvqxd8FJ"></path><radialGradient id="gradientbBUcg8Qrl" gradientUnits="userSpaceOnUse" cx="326.54" cy="65.74" dx="326.54" dy="532.08" r="466.34"><stop style="stop-color: #32baa1;stop-opacity: 1" offset="0%"></stop><stop style="stop-color: #010000;stop-opacity: 1" offset="100%"></stop></radialGradient><path d="M416.81 165.83C414.5 167.16 294.77 271.04 292.77 273.46C291.67 274.79 275.49 324.88 275.49 326.99C275.49 329.55 278.9 332.48 281.9 332.48C284.21 332.48 341.68 318.32 343.15 317.41C343.94 316.9 371.68 292.85 404.83 263.89C448.81 225.49 465.62 210.5 467.19 208.35C471.08 203.03 472.71 195.98 471.5 189.7C471.13 187.91 469.93 184.89 468.72 182.64C466.83 179.16 465.83 178.11 459.16 172.29C452.48 166.47 451.28 165.64 447.28 163.95C440.19 160.97 433.62 160.37 426.43 162.02C422.33 162.94 420.44 163.72 416.81 165.83ZM456.79 187.68C457.84 189.43 458.05 190.43 458.05 194.1C458.05 199.64 457.11 201.43 451.12 206.88C450.83 207.15 449.39 208.46 446.81 210.82L430.89 196.94L414.97 183.06C417.75 180.75 419.29 179.46 419.6 179.21C422.17 177.1 425.27 174.95 426.53 174.4C431.1 172.47 437.2 172.52 441.66 174.49C444.55 175.72 455.22 185.07 456.79 187.68ZM437.04 218.84L388.02 261.55L339.06 304.3C329.76 296.19 324.59 291.69 323.56 290.79C315.05 283.36 308.06 277.08 308.06 276.81C308.06 276.21 404.83 191.81 405.52 191.81C405.83 191.81 413.03 197.9 421.54 205.33C423.61 207.13 428.77 211.63 437.04 218.84ZM291.93 318.14C291.88 318.1 293.51 312.87 295.5 306.59C297.5 300.27 299.65 293.53 300.29 291.52C300.36 291.28 300.73 290.09 301.39 287.94C308.89 294.49 313.06 298.12 313.89 298.85C320.83 304.9 326.13 309.89 325.82 309.99C323.87 310.54 292.04 318.19 291.93 318.14Z" id="a3YTOMhfbd"></path><path d="M213.97 212.44C213.87 212.69 213.4 213.9 212.55 216.08C212.55 261.67 212.55 286.99 212.55 292.06C212.55 364.52 212.59 368.16 213.37 370.56C215.07 375.7 216.9 378.56 221.03 382.42C223.91 385.11 225.79 386.48 228.22 387.6C234.91 390.72 228.36 390.55 325.07 390.42C330.86 390.41 359.81 390.37 411.93 390.29C413.77 389.62 414.79 389.25 415 389.18C424.03 385.88 430.4 379.85 433.38 371.67C434.39 368.93 434.39 368.5 434.52 341.28C434.66 316.5 434.62 313.55 433.93 312.35C432.97 310.63 431 309.61 428.7 309.61C427.19 309.61 426.46 309.91 425.08 311.06C424.97 311.16 424.4 311.65 423.39 312.52C423.25 328.8 423.17 337.85 423.16 339.66C422.93 366.66 422.93 366.75 421.87 369.19C419.99 373.56 416.47 376.85 411.79 378.61C411.62 378.67 410.75 379 409.18 379.59C358.74 379.67 330.72 379.71 325.12 379.72C269.61 379.76 240.19 379.68 238.49 379.38C232.99 378.44 228.09 374.93 225.79 370.26C225.7 370.08 225.26 369.2 224.46 367.61L224.46 292.27L224.46 216.94C225.26 215.32 225.7 214.42 225.79 214.24C227.49 210.82 231.39 207.35 235.1 205.94C235.28 205.87 236.16 205.54 237.76 204.95C255.08 204.83 264.71 204.75 266.63 204.74C298.9 204.48 297.07 204.7 298.72 201.44C299.77 199.39 299.31 197.38 297.3 195.54C297.19 195.44 296.65 194.94 295.69 194.04C278.04 194.06 268.23 194.08 266.27 194.08C241.84 194.08 236.43 194.21 234.32 194.72C224.74 197.12 217.36 203.54 213.97 212.44Z" id="fk0MTbg7e"></path><radialGradient id="gradientj3ljdkzEZ" gradientUnits="userSpaceOnUse" cx="323.57" cy="194.04" dx="488.72" dy="459.92" r="313"><stop style="stop-color: #ffffff;stop-opacity: 1" offset="0%"></stop><stop style="stop-color: #ffffff;stop-opacity: 1" offset="100%"></stop></radialGradient></defs><g><g><g><use xlink:href="#c6vvqxd8FJ" opacity="1" fill="url(#gradientbBUcg8Qrl)"></use></g><g><use xlink:href="#a3YTOMhfbd" opacity="1" fill="#ffffff" fill-opacity="1"></use><g><use xlink:href="#a3YTOMhfbd" opacity="1" fill-opacity="0" stroke="#000000" stroke-width="1" stroke-opacity="0"></use></g></g><g><use xlink:href="#fk0MTbg7e" opacity="1" fill="url(#gradientj3ljdkzEZ)"></use><g><use xlink:href="#fk0MTbg7e" opacity="1" fill-opacity="0" stroke="#000000" stroke-width="1" stroke-opacity="0"></use></g></g></g></g></svg>